<?xml version="1.0" encoding="UTF-8"?>
<svg id="Layer_1" data-name="Layer 1" xmlns="http://www.w3.org/2000/svg" version="1.1" viewBox="0 0 191 32">
  <defs>
    <style>
      .cls-1 {
        fill: #000;
      }

      .cls-1, .cls-2 {
        stroke-width: 0px;
      }

      .cls-2 {
        fill: #00a571;
      }
    </style>
  </defs>
  <path class="cls-2" d="M9.2,32H0v-13h2.2v10.6h4.8v-12.3H0V0h14.3c6.5,0,11.8,5.6,11.8,12.4s-5.3,12.4-11.8,12.4h-3.8v-2.4h3.8c5.2,0,9.5-4.5,9.5-10S19.5,2.3,14.3,2.3H2.3v12.7h4.7V6.4h6.9c2.9,0,5.2,2.4,5.2,5.5s-2.4,5.5-5.2,5.5h-4.7v14.6ZM9.2,15h4.7c1.6,0,2.9-1.4,2.9-3.1s-1.3-3.1-2.9-3.1h-4.7v6.2Z"/>
  <path class="cls-1" d="M44.5,13.4c0,2.3-1.8,4.1-4.2,4.1h-2.6v4.4h-2.1v-12.7h4.7c2.4,0,4.2,1.8,4.2,4.1ZM42.5,13.4c0-1.3-.9-2.2-2.1-2.2h-2.6v4.4h2.6c1.2,0,2.1-1,2.1-2.2Z"/>
  <path class="cls-1" d="M51.1,12.7v2.1c-1.3-.1-2.8.5-2.8,2.6v4.6h-2v-9h2v1.5c.5-1.3,1.6-1.8,2.8-1.8Z"/>
  <path class="cls-1" d="M61.6,12.9v9h-2v-1.3c-.7,1-1.8,1.5-3.1,1.5-2.4,0-4.5-2.1-4.5-4.7s2-4.7,4.5-4.7,2.5.6,3.1,1.5v-1.3h2ZM59.7,17.4c0-1.7-1.2-2.9-2.9-2.9s-2.9,1.2-2.9,2.9,1.2,2.9,2.9,2.9,2.9-1.2,2.9-2.9Z"/>
  <path class="cls-1" d="M73.4,12.9v8.6c0,2.9-2.3,4.3-4.6,4.3s-3.5-.7-4.3-2.2l1.7-1c.4.8,1.1,1.4,2.7,1.4s2.7-.9,2.7-2.5v-1.1c-.7,1-1.8,1.6-3.1,1.6-2.6,0-4.6-2.1-4.6-4.7s2-4.7,4.6-4.7,2.4.6,3.1,1.6v-1.3h1.9ZM71.4,17.3c0-1.6-1.2-2.8-2.9-2.8s-2.9,1.2-2.9,2.8,1.2,2.8,2.9,2.8,2.9-1.2,2.9-2.8Z"/>
  <path class="cls-1" d="M89.3,16.3v5.6h-2v-5.5c0-1.3-.7-2-1.8-2s-2,.7-2,2.4v5h-2v-5.5c0-1.3-.6-2-1.7-2s-2,.7-2,2.4v5h-2v-9h2v1.1c.6-.9,1.5-1.3,2.6-1.3s2,.5,2.6,1.4c.6-1,1.5-1.4,2.8-1.4,2.1,0,3.5,1.5,3.5,3.7Z"/>
  <path class="cls-1" d="M100.9,12.9v9h-2v-1.3c-.7,1-1.8,1.5-3.1,1.5-2.4,0-4.5-2.1-4.5-4.7s2-4.7,4.5-4.7,2.5.6,3.1,1.5v-1.3h2ZM98.9,17.4c0-1.7-1.2-2.9-2.9-2.9s-2.9,1.2-2.9,2.9,1.2,2.9,2.9,2.9,2.9-1.2,2.9-2.9Z"/>
  <path class="cls-1" d="M106.3,14.7v4.4c0,1.2.7,1.1,2.2,1.1v1.8c-3,.4-4.2-.5-4.2-2.8v-4.4h-1.6v-1.9h1.6v-2l2-.6v2.6h2.2v1.9h-2.2Z"/>
  <path class="cls-1" d="M110.4,10.3c0-.7.6-1.2,1.2-1.2s1.2.6,1.2,1.2-.6,1.2-1.2,1.2-1.2-.6-1.2-1.2ZM110.7,12.9h2v9h-2v-9Z"/>
  <path class="cls-1" d="M114.8,17.4c0-2.7,2-4.7,4.8-4.7s3.3.9,4,2.3l-1.7,1c-.4-.9-1.3-1.4-2.4-1.4-1.6,0-2.8,1.2-2.8,2.8s1.2,2.8,2.8,2.8,2-.6,2.4-1.4l1.7,1c-.7,1.4-2.3,2.3-4,2.3-2.8,0-4.8-2.1-4.8-4.7Z"/>
  <path class="cls-2" d="M129.8,15.6c0-3.7,2.8-6.5,6.6-6.5s4.4,1.2,5.4,3l-1.8,1.1c-.7-1.2-2-2-3.6-2-2.7,0-4.5,1.9-4.5,4.5s1.8,4.5,4.5,4.5,3-.8,3.6-2l1.8,1c-1.1,1.9-3.1,3-5.4,3-3.8,0-6.6-2.9-6.6-6.6Z"/>
  <path class="cls-2" d="M143.3,17.4c0-2.7,2.1-4.7,4.8-4.7s4.8,2.1,4.8,4.7-2.1,4.7-4.8,4.7-4.8-2.1-4.8-4.7ZM150.9,17.4c0-1.6-1.2-2.9-2.8-2.9s-2.8,1.2-2.8,2.9,1.2,2.9,2.8,2.9,2.8-1.2,2.8-2.9Z"/>
  <path class="cls-2" d="M164,9.2v12.7h-2v-1.3c-.7,1-1.8,1.5-3.1,1.5-2.4,0-4.5-2.1-4.5-4.7s2-4.7,4.5-4.7,2.5.6,3.1,1.5v-4.9h2ZM162.1,17.4c0-1.7-1.2-2.9-2.9-2.9s-2.9,1.2-2.9,2.9,1.2,2.9,2.9,2.9,2.9-1.2,2.9-2.9Z"/>
  <path class="cls-2" d="M171.1,20.4c1.1,0,1.9-.5,2.3-1.1l1.6,1c-.8,1.2-2.2,2-3.9,2-3,0-4.9-2-4.9-4.7s1.9-4.7,4.8-4.7,4.5,2.2,4.5,4.8,0,.6,0,.8h-7.2c.2,1.3,1.4,2.1,2.8,2.1ZM173.5,16.6c-.3-1.5-1.4-2.2-2.6-2.2s-2.4.9-2.7,2.2h5.3Z"/>
  <path class="cls-2" d="M182.3,12.7v2.1c-1.3-.1-2.8.5-2.8,2.6v4.6h-2v-9h2v1.5c.5-1.3,1.6-1.8,2.8-1.8Z"/>
  <path class="cls-2" d="M190.4,19.3c0,1.8-1.6,2.8-3.5,2.8s-3.1-.8-3.7-2.1l1.7-1c.3.8,1,1.3,2,1.3s1.5-.3,1.5-1c0-1.6-4.8-.7-4.8-3.9s1.5-2.8,3.3-2.8,2.7.7,3.3,1.9l-1.6.9c-.3-.7-1-1-1.7-1s-1.3.3-1.3,1c-.1,1.7,4.8.7,4.8,4Z"/>
</svg>