<?xml version="1.0" encoding="utf-8"?>
<!-- Generator: Adobe Illustrator 27.0.0, SVG Export Plug-In . SVG Version: 6.00 Build 0)  -->
<svg version="1.1" id="Warstwa_1" xmlns="http://www.w3.org/2000/svg" xmlns:xlink="http://www.w3.org/1999/xlink" x="0px" y="0px"
	 viewBox="0 0 24 24" style="enable-background:new 0 0 24 24;" xml:space="preserve">
<style type="text/css">
	.st0{fill:#00A571;}
</style>
<path class="st0" d="M10.1,22.3h-6V14h1.5v6.8h3.1v-7.9H4.1V1.7h9.3c4.2,0,7.6,3.6,7.6,8c0,4.4-3.4,8-7.6,8h-2.5v-1.6h2.5
	c3.4,0,6.1-2.9,6.1-6.4c0-3.5-2.8-6.4-6.1-6.4H5.6v8.2h3V5.8h4.5c1.9,0,3.4,1.6,3.4,3.5s-1.5,3.5-3.4,3.5h-3V22.3z M10.1,11.4h3
	c1,0,1.9-0.9,1.9-2c0-1.1-0.9-2-1.9-2h-3V11.4z"/>
</svg>
